# xmcd CD database file
#
# Track frame offsets:
#	150
#	21752
#	49915
#	82622
#	110605
#	140960
#	161847
#	194702
#	224672
#
# Disc length: 3415 seconds
#
# Revision: 0
# Processed by: cddbd v1.5.1PL0 Copyright (c) Steve Scherf et al.
# Submitted via: CDex 1.51
#
DISCID=880d5509
DTITLE=Keiji Matsushima - Happy Times
DYEAR=1998
DGENRE=Jazz
TTITLE0=Back To Dream(Keiji Matsushima)
TTITLE1=The Littlest One Of All
TTITLE2=The Man I Love
TTITLE3=Trust Me
TTITLE4=Treasure(Keiji Matsushima)
TTITLE5=Jackpot(Keiji Matsushima)
TTITLE6=My Romance
TTITLE7=Blue Moon
TTITLE8=Happy Times
EXTD=YEAR: 1998
EXTT0=
EXTT1=
EXTT2=
EXTT3=
EXTT4=
EXTT5=
EXTT6=
EXTT7=
EXTT8=
PLAYORDER=
